<?xml version="1.0" encoding="utf-8"?><!-- Uploaded to: SVG Repo, www.svgrepo.com, Generator: SVG Repo Mixer Tools -->


<svg height="100%" width="100%" viewBox="0 0 24 24" xmlns="http://www.w3.org/2000/svg">
              <defs><filter x="-6" y="-6" width="53" height="59" filterUnits="userSpaceOnUse" id="comp-igah77ax-shadow_comp-igah77ax" color-interpolation-filters="sRGB">
    <feComponentTransfer result="srcRGB"></feComponentTransfer>
    <feGaussianBlur stdDeviation="2" in="SourceAlpha"></feGaussianBlur>
<feOffset dx="1" dy="1"></feOffset>
<feColorMatrix type="matrix" values="0 0 0 0 0
0 0 0 0 0
0 0 0 0 0
0 0 0 0.6 0"></feColorMatrix>
<feMerge>
    <feMergeNode></feMergeNode>
    <feMergeNode in="SourceGraphic"></feMergeNode>
</feMerge>
    <feComponentTransfer></feComponentTransfer>
</filter></defs>
              <g filter="url(#comp-igah77ax-shadow_comp-igah77ax)">
                  <!--?xml version="1.0" encoding="UTF-8"?-->
<svg preserveAspectRatio="xMidYMid meet" data-bbox="161 140 190.1 215" viewBox="161 140 190.1 215" height="100%" width="100%" xmlns="http://www.w3.org/2000/svg" data-type="shape" role="presentation" aria-hidden="true" aria-labelledby="comp-igah77ax-svgtitle_comp-igah77ax"><title id="comp-igah77ax-svgtitle_comp-igah77ax"></title>
    <g>
        <path d="M161 190.5V241h50v-61h20v-40h-70v50.5z"></path>
        <path d="m254.2 160.2.3 20.3 6 .6c13.1 1.2 24 6.6 30.2 14.7 4.8 6.3 6.6 13.6 6.1 24.6-.4 8.6-1.1 11.2-5.6 19.8-.2.5 11.8.8 26.6.8h27l1.3-6.8c1.9-10 1.5-27.1-1-36.7-3.4-13-8.4-21.7-18.1-31.5-9.7-9.7-18.4-15-32.5-19.8-10.1-3.5-25.4-6.2-34.5-6.2h-6l.2 20.2z"></path>
        <path d="M161 308.5V355h50v-60h20l-.2-16.3-.3-16.2-34.7-.3-34.8-.2v46.5z"></path>
        <path d="M254 278.3c0 14.4.2 16.3 1.8 17.3.9.6 10.7 14.2 21.7 30.2l20 29.1 26.8.1h26.8l-1.9-2.8c-1-1.5-11.6-16.7-23.5-33.8-12-17.2-21.7-31.4-21.7-31.8 0-.3 1.5-1.3 3.3-2.2 9.1-4.6 18.6-12 23.9-18.7l3-3.7H254v16.3z"></path>
    </g>
</svg>

              </g>
          </svg>